<svg width="90" height="90" viewBox="0 0 90 90" fill="none" xmlns="http://www.w3.org/2000/svg">
<g clip-path="url(#clip0_218_3953)">
<path d="M76.9155 17.327H64.1535V4.56499H68.3982V0.320312H8.83301V89.682H81.1601V13.0823H76.9155V17.327ZM76.9155 85.4373H13.0777V4.56499H59.8809V21.5996H76.9155V85.4373Z" fill="#BFFB4F"/>
<path d="M76.9156 8.83984H72.6709V13.0845H76.9156V8.83984Z" fill="#BFFB4F"/>
<path d="M72.671 4.56641H68.3984V8.83901H72.671V4.56641Z" fill="#BFFB4F"/>
<path d="M59.8792 64.1584H55.6345V38.6066H47.1173V64.1584H42.8726V47.1238H34.3553V64.1584H21.5933V55.6411H25.838V51.3964H21.5933V42.8792H25.838V38.6066H21.5933V30.1172H17.3486V68.4031H72.6691V64.1584H68.3965V42.8792H59.8792V64.1584Z" fill="#BFFB4F"/>
</g>
<defs>
<clipPath id="clip0_218_3953">
<rect width="89.3617" height="89.3617" fill="white" transform="translate(0.317383 0.320312)"/>
</clipPath>
</defs>
</svg>
