<svg width="163" height="163" viewBox="0 0 163 163" fill="none" xmlns="http://www.w3.org/2000/svg">
<g clip-path="url(#clip0_218_4784)">
<path d="M163 147.465H147.464V155.258H163V147.465Z" fill="#BFFB4F"/>
<path d="M147.464 155.258H139.722V163H147.464V155.258Z" fill="#BFFB4F"/>
<path d="M139.721 100.907H131.928V108.65H139.721V116.443H147.464V77.6289H139.721V100.907Z" fill="#BFFB4F"/>
<path d="M139.721 147.465H124.186V155.258H139.721V147.465Z" fill="#BFFB4F"/>
<path d="M139.721 69.8867H131.928V77.6292H139.721V69.8867Z" fill="#BFFB4F"/>
<path d="M124.185 139.721H108.649V147.463H124.185V139.721Z" fill="#BFFB4F"/>
<path d="M116.443 108.65H124.186V100.907H131.928V93.1648H124.186V69.8863H131.928V62.0929H124.186V38.8145H116.443V108.65Z" fill="#BFFB4F"/>
<path d="M108.65 155.258H100.907V163H108.65V155.258Z" fill="#BFFB4F"/>
<path d="M108.65 93.1641H100.907V100.907H108.65V93.1641Z" fill="#BFFB4F"/>
<path d="M108.65 77.6289H100.907V85.3714H108.65V77.6289Z" fill="#BFFB4F"/>
<path d="M100.907 139.721H93.1133V155.257H100.907V139.721Z" fill="#BFFB4F"/>
<path d="M100.907 124.186H69.835V131.979H100.907V124.186Z" fill="#BFFB4F"/>
<path d="M100.907 7.74219H93.1133V15.5356H100.907V7.74219Z" fill="#BFFB4F"/>
<path d="M93.1139 0H77.6289V7.7425H93.1139V0Z" fill="#BFFB4F"/>
<path d="M100.907 46.557H93.1134V38.8145H77.6284V46.557H85.3709V54.3504H77.6284V46.557H69.835V62.0929H77.6284V69.8863H93.1134V62.0929H100.907V46.557Z" fill="#BFFB4F"/>
<path d="M77.6284 139.721H69.835V155.257H77.6284V139.721Z" fill="#BFFB4F"/>
<path d="M54.2998 116.444H62.0932V124.186H69.8357V116.444H100.908V124.186H108.65V116.444H116.444V108.65H54.2998V116.444Z" fill="#BFFB4F"/>
<path d="M77.6284 7.74219H69.835V15.5356H77.6284V7.74219Z" fill="#BFFB4F"/>
<path d="M69.8353 155.258H62.0928V163H69.8353V155.258Z" fill="#BFFB4F"/>
<path d="M62.0926 139.721H46.5566V147.463H62.0926V139.721Z" fill="#BFFB4F"/>
<path d="M69.8357 23.2777V15.5352H62.0932V23.2777H54.2998V38.8136H62.0932V31.0711H108.65V38.8136H116.444V23.2777H108.65V15.5352H100.908V23.2777H69.8357Z" fill="#BFFB4F"/>
<path d="M54.2995 38.8145H46.557V62.0929H38.8145V69.8863H46.557V93.1648H38.8145V100.907H46.557V108.65H54.2995V38.8145Z" fill="#BFFB4F"/>
<path d="M46.5564 147.465H31.0205V155.258H46.5564V147.465Z" fill="#BFFB4F"/>
<path d="M38.8139 69.8867H31.0205V77.6292H38.8139V69.8867Z" fill="#BFFB4F"/>
<path d="M31.0208 155.258H23.2783V163H31.0208V155.258Z" fill="#BFFB4F"/>
<path d="M31.0208 77.6289H23.2783V116.443H31.0208V108.65H38.8143V100.907H31.0208V77.6289Z" fill="#BFFB4F"/>
<path d="M23.2781 147.465H7.74219V155.258H23.2781V147.465Z" fill="#BFFB4F"/>
<path d="M7.7425 155.258H0V163H7.7425V155.258Z" fill="#BFFB4F"/>
</g>
<defs>
<clipPath id="clip0_218_4784">
<rect width="163" height="163" fill="white"/>
</clipPath>
</defs>
</svg>
