<svg width="167" height="166" viewBox="0 0 167 166" fill="none" xmlns="http://www.w3.org/2000/svg">
<g clip-path="url(#clip0_218_4383)">
<path d="M8.385 47.4161H158.615V150.18H166.5V15.8242H158.615V39.5311H8.385V15.8242H0.5V150.18H8.385V47.4161Z" fill="#181818"/>
<path d="M158.617 150.18H8.38672V158.117H158.617V150.18Z" fill="#181818"/>
<path d="M24.207 63.2383V134.411H142.793V63.2383H24.207ZM71.6208 102.767H63.7358V110.652H55.8508V118.589H47.9139V110.652H55.8508V102.767H63.7358V94.882H55.8508V86.9452H47.9139V79.0602H55.8508V86.9452H63.7358V94.882H71.6208V102.767ZM119.086 102.767H87.4427V94.882H119.086V102.767Z" fill="#181818"/>
<path d="M55.8509 23.707H47.9141V31.6439H55.8509V23.707Z" fill="#181818"/>
<path d="M40.0295 23.707H32.1445V31.6439H40.0295V23.707Z" fill="#181818"/>
<path d="M24.2053 23.707H16.3203V31.6439H24.2053V23.707Z" fill="#181818"/>
<path d="M158.617 7.88672H8.38672V15.8236H158.617V7.88672Z" fill="#181818"/>
</g>
<defs>
<clipPath id="clip0_218_4383">
<rect width="166" height="166" fill="white" transform="translate(0.5)"/>
</clipPath>
</defs>
</svg>
