<svg width="67" height="67" viewBox="0 0 67 67" fill="none" xmlns="http://www.w3.org/2000/svg">
<path d="M63.4223 47.5699H53.9119V44.3859H57.0751V41.2227H9.52299V44.3859H12.6966V47.5699H3.17578V66.5907H63.4223V47.5699ZM15.8494 44.3859H50.7279V47.5699H15.8494V44.3859ZM60.2591 63.4275H6.33898V50.7331H60.2591V63.4275Z" fill="#BFFB4F"/>
<path d="M60.2582 3.16406H57.0742V41.2265H60.2582V3.16406Z" fill="#BFFB4F"/>
<path d="M53.9084 53.8984H38.0508V57.0825H53.9084V53.8984Z" fill="#BFFB4F"/>
<path d="M41.214 22.2031H38.0508V25.3663H41.214V22.2031Z" fill="#BFFB4F"/>
<path d="M41.214 15.8516H38.0508V19.0148H41.214V15.8516Z" fill="#BFFB4F"/>
<path d="M38.0534 25.3672H28.543V28.5304H38.0534V25.3672Z" fill="#BFFB4F"/>
<path d="M28.5434 22.2031H25.3594V25.3663H28.5434V22.2031Z" fill="#BFFB4F"/>
<path d="M28.5434 15.8594H25.3594V19.0226H28.5434V15.8594Z" fill="#BFFB4F"/>
<path d="M12.6953 38.059H53.921V6.34375H12.6953V38.059ZM15.8481 9.50695H50.7266V34.875H15.8481V9.50695Z" fill="#BFFB4F"/>
<path d="M19.0347 53.8984H12.6875V60.2457H19.0347V53.8984Z" fill="#BFFB4F"/>
<path d="M57.0755 0H9.52344V3.1632H57.0755V0Z" fill="#BFFB4F"/>
<path d="M9.52386 3.16406H6.33984V41.2265H9.52386V3.16406Z" fill="#BFFB4F"/>
</svg>
