<svg width="195" height="195" viewBox="0 0 195 195" fill="none" xmlns="http://www.w3.org/2000/svg">
<g clip-path="url(#clip0_218_3791)">
<path d="M167.164 18.5859H176.427V9.2625H185.689V0H129.992V9.2625H167.164V18.5859Z" fill="#BFFB4F"/>
<path d="M167.167 18.5859H157.844V27.8484H167.167V18.5859Z" fill="#BFFB4F"/>
<path d="M157.841 27.8516H148.578V37.175H157.841V27.8516Z" fill="#BFFB4F"/>
<path d="M148.579 37.168H139.316V46.4305H148.579V37.168Z" fill="#BFFB4F"/>
<path d="M139.316 46.4375H129.992V65.0234H139.316V46.4375Z" fill="#BFFB4F"/>
<path d="M139.316 18.5859H129.992V27.8484H139.316V18.5859Z" fill="#BFFB4F"/>
<path d="M129.993 65.0195H120.73V74.282H129.993V65.0195Z" fill="#BFFB4F"/>
<path d="M129.993 27.8477H120.73V37.1711H129.993V27.8477Z" fill="#BFFB4F"/>
<path d="M130.012 9.26172H111.426V18.5852H130.012V9.26172Z" fill="#BFFB4F"/>
<path d="M120.749 37.168H111.426V46.4305H120.749V37.168Z" fill="#BFFB4F"/>
<path d="M120.723 74.2852H102.137V83.6086H120.723V74.2852Z" fill="#BFFB4F"/>
<path d="M111.399 46.4375H102.137V55.7H111.399V46.4375Z" fill="#BFFB4F"/>
<path d="M111.399 18.5859H102.137V27.8484H111.399V18.5859Z" fill="#BFFB4F"/>
<path d="M18.6047 195.002H102.15V185.739H111.412V148.567H102.15V157.891H55.7156V148.567H37.1602V139.305H18.6047V148.567H9.28125V185.739H18.6047V195.002ZM27.8672 157.891H37.1602V176.416H55.7461V185.739H37.1602V176.416H27.8672V157.891Z" fill="#BFFB4F"/>
<path d="M102.145 55.6953H92.8828V65.0187H102.145V55.6953Z" fill="#BFFB4F"/>
<path d="M102.145 27.8516H92.8828V37.175H102.145V27.8516Z" fill="#BFFB4F"/>
<path d="M102.16 139.305H83.5742V148.567H102.16V139.305Z" fill="#BFFB4F"/>
<path d="M102.142 83.6055H83.5562V74.282H74.2937V65.0195H65.0312V92.868H102.142V83.6055Z" fill="#BFFB4F"/>
<path d="M92.8977 65.0195H83.5742V74.282H92.8977V65.0195Z" fill="#BFFB4F"/>
<path d="M92.8977 37.168H83.5742V46.4305H92.8977V37.168Z" fill="#BFFB4F"/>
<path d="M83.575 46.4375H74.3125V65.0234H83.575V46.4375Z" fill="#BFFB4F"/>
<path d="M46.4531 120.716H74.3016V139.302H83.5641V120.716H92.8875V111.453H65.0391V92.8672H55.7156V111.453H27.8672V120.716H37.1297V139.302H46.4531V120.716Z" fill="#BFFB4F"/>
</g>
<defs>
<clipPath id="clip0_218_3791">
<rect width="195" height="195" fill="white"/>
</clipPath>
</defs>
</svg>
