<svg width="195" height="195" viewBox="0 0 195 195" fill="none" xmlns="http://www.w3.org/2000/svg">
<g clip-path="url(#clip0_218_3815)">
<path d="M195.007 55.7344H185.684V176.452H195.007V55.7344Z" fill="#BFFB4F"/>
<path d="M185.692 176.445H176.43V185.708H185.692V176.445Z" fill="#BFFB4F"/>
<path d="M176.43 74.3164H167.168V167.124H176.43V74.3164Z" fill="#BFFB4F"/>
<path d="M167.171 176.445H157.848V185.708H18.6055V194.97H176.434V185.708H167.171V176.445Z" fill="#BFFB4F"/>
<path d="M148.582 176.448H157.845V55.7305H185.693V46.407H157.845V18.5586H148.582V176.448Z" fill="#BFFB4F"/>
<path d="M139.325 167.129H37.1328V176.452H139.325V167.129Z" fill="#BFFB4F"/>
<path d="M139.335 92.8438H111.426V120.692H139.335V92.8438Z" fill="#BFFB4F"/>
<path d="M102.161 92.8438H74.3125V102.167H102.161V92.8438Z" fill="#BFFB4F"/>
<path d="M102.161 111.426H74.3125V120.688H102.161V111.426Z" fill="#BFFB4F"/>
<path d="M139.323 148.602H18.6055V157.864H139.323V148.602Z" fill="#BFFB4F"/>
<path d="M139.323 130.012H18.6055V139.274H139.323V130.012Z" fill="#BFFB4F"/>
<path d="M65.0398 111.426H18.6055V120.688H65.0398V111.426Z" fill="#BFFB4F"/>
<path d="M65.0398 92.8438H18.6055V102.167H65.0398V92.8438Z" fill="#BFFB4F"/>
<path d="M139.323 83.5797V37.1758H18.6055V83.6102L139.323 83.5797ZM27.868 46.4078H65.0398V55.7313H55.7164V64.9937H46.4539V74.3477H27.868V46.4078Z" fill="#BFFB4F"/>
<path d="M148.584 9.29688H9.28125V18.5594H148.584V9.29688Z" fill="#BFFB4F"/>
<path d="M18.6047 176.445H9.28125V185.708H18.6047V176.445Z" fill="#BFFB4F"/>
<path d="M9.28203 18.5586H0.0195312V176.448H9.28203V18.5586Z" fill="#BFFB4F"/>
</g>
<defs>
<clipPath id="clip0_218_3815">
<rect width="195" height="195" fill="white"/>
</clipPath>
</defs>
</svg>
