<svg width="483" height="284" viewBox="0 0 483 284" fill="none" xmlns="http://www.w3.org/2000/svg">
<path d="M482.411 149.758H469.016V216.909H482.411V149.758Z" fill="#BFFB4F"/>
<path d="M469.014 216.906H455.531V243.696H469.014V216.906Z" fill="#BFFB4F"/>
<path d="M469.014 122.879H455.531V149.757H469.014V122.879Z" fill="#BFFB4F"/>
<path d="M455.532 243.695H442.137V270.573H455.532V243.695Z" fill="#BFFB4F"/>
<path d="M455.532 109.395H442.137V122.878H455.532V109.395Z" fill="#BFFB4F"/>
<path d="M442.135 270.574H428.652V283.969H442.135V270.574Z" fill="#BFFB4F"/>
<path d="M442.135 190.031H428.652V216.909H442.135V190.031Z" fill="#BFFB4F"/>
<path d="M442.135 149.758H428.652V176.548H442.135V149.758Z" fill="#BFFB4F"/>
<path d="M442.135 96H428.652V109.395H442.135V96Z" fill="#BFFB4F"/>
<path d="M428.653 216.906H415.258V230.301H428.653V216.906Z" fill="#BFFB4F"/>
<path d="M428.653 109.395H415.258V149.756H428.653V109.395Z" fill="#BFFB4F"/>
<path d="M415.258 230.305H401.863V243.7H415.258V230.305Z" fill="#BFFB4F"/>
<path d="M428.653 176.547H401.863V190.03H428.653V176.547Z" fill="#BFFB4F"/>
<path d="M401.862 190.031H388.379V203.426H401.862V190.031Z" fill="#BFFB4F"/>
<path d="M388.379 270.574H374.984V283.969H388.379V270.574Z" fill="#BFFB4F"/>
<path d="M388.379 203.426H374.984V216.909H388.379V203.426Z" fill="#BFFB4F"/>
<path d="M374.985 216.906H361.59V270.574H374.985V216.906Z" fill="#BFFB4F"/>
<path d="M121.411 216.906H108.016V270.574H121.411V216.906Z" fill="#BFFB4F"/>
<path d="M108.016 270.574H94.6211V283.969H108.016V270.574Z" fill="#BFFB4F"/>
<path d="M108.016 203.426H94.6211V216.909H108.016V203.426Z" fill="#BFFB4F"/>
<path d="M94.6198 190.031H81.1367V203.426H94.6198V190.031Z" fill="#BFFB4F"/>
<path d="M81.1372 230.305H67.7422V243.7H81.1372V230.305Z" fill="#BFFB4F"/>
<path d="M81.1377 176.547H54.3477V190.03H81.1377V176.547Z" fill="#BFFB4F"/>
<path d="M67.7427 216.906H54.3477V230.301H67.7427V216.906Z" fill="#BFFB4F"/>
<path d="M67.7427 109.395H54.3477V149.756H67.7427V109.395Z" fill="#BFFB4F"/>
<path d="M54.3464 270.574H40.8633V283.969H54.3464V270.574Z" fill="#BFFB4F"/>
<path d="M54.3464 190.031H40.8633V216.909H54.3464V190.031Z" fill="#BFFB4F"/>
<path d="M54.3464 149.758H40.8633V176.548H54.3464V149.758Z" fill="#BFFB4F"/>
<path d="M54.3464 96H40.8633V109.395H54.3464V96Z" fill="#BFFB4F"/>
<path d="M40.8638 243.695H27.4688V270.573H40.8638V243.695Z" fill="#BFFB4F"/>
<path d="M40.8638 109.395H27.4688V122.878H40.8638V109.395Z" fill="#BFFB4F"/>
<path d="M27.4675 216.906H13.9844V243.696H27.4675V216.906Z" fill="#BFFB4F"/>
<path d="M27.4675 122.879H13.9844V149.757H27.4675V122.879Z" fill="#BFFB4F"/>
<path d="M13.9848 149.758H0.589844V216.909H13.9848V149.758Z" fill="#BFFB4F"/>
<g clip-path="url(#clip0_218_3699)">
<path d="M292.966 62.15V85.025H281.566V119.3H292.966V130.7H304.441V142.175H270.166V153.575H258.691V164.975H292.966V187.85H281.566V210.725H292.966V222.125H315.841V210.725H327.316V199.25H338.716V176.45H350.116V153.575H361.591V96.425H350.116V73.55H338.716V50.75H327.316V62.15H292.966Z" fill="#BFFB4F"/>
<path d="M327.315 39.2734H315.84V50.7484H327.315V39.2734Z" fill="#BFFB4F"/>
<path d="M315.84 27.875H292.965V39.275H315.84V27.875Z" fill="#BFFB4F"/>
<path d="M292.964 222.125H270.164V233.6H292.964V222.125Z" fill="#BFFB4F"/>
<path d="M292.964 16.3984H270.164V27.8734H292.964V16.3984Z" fill="#BFFB4F"/>
<path d="M247.291 222.127H235.891V210.727H201.541V222.127H190.141V233.602H213.016V245.002H270.166V233.602H247.291V222.127Z" fill="#BFFB4F"/>
<path d="M270.166 5H213.016V16.4H270.166V5Z" fill="#BFFB4F"/>
<path d="M201.539 130.699H213.014V142.174H224.414V107.824H201.539V130.699Z" fill="#BFFB4F"/>
<path d="M190.141 210.727H167.266V222.127H190.141V210.727Z" fill="#BFFB4F"/>
<path d="M167.263 199.25H155.863V210.725H167.263V199.25Z" fill="#BFFB4F"/>
<path d="M144.465 176.448V199.248H155.865V187.848H167.265V176.448H178.74V142.173H167.265V130.698H155.865V119.298H144.465V107.823H155.865V96.4234H190.14V85.0234H201.54V73.5484H213.015V85.0234H224.415V73.5484H235.89V50.7484H224.415V39.2734H201.54V27.8734H213.015V16.3984H190.14V27.8734H167.265V39.2734H155.865V50.7484H144.465V73.5484H132.99V96.4234H121.59V153.573H132.99V176.448H144.465Z" fill="#BFFB4F"/>
</g>
<path d="M435.589 29.5586H425.758V39.4541H435.589V29.5586Z" fill="#BFFB4F"/>
<path d="M406.034 59.1797H396.203V69.0105H406.034V59.1797Z" fill="#BFFB4F"/>
<path d="M406.034 29.5586H396.203V39.4541H406.034V29.5586Z" fill="#BFFB4F"/>
<path d="M406.034 0H396.203V9.89548H406.034V0Z" fill="#BFFB4F"/>
<path d="M376.485 29.5586H366.59V39.4541H376.485V29.5586Z" fill="#BFFB4F"/>
<path d="M116.589 29.5586H106.758V39.4541H116.589V29.5586Z" fill="#BFFB4F"/>
<path d="M87.0339 59.1797H77.2031V69.0105H87.0339V59.1797Z" fill="#BFFB4F"/>
<path d="M87.0339 29.5586H77.2031V39.4541H87.0339V29.5586Z" fill="#BFFB4F"/>
<path d="M87.0339 0H77.2031V9.89548H87.0339V0Z" fill="#BFFB4F"/>
<path d="M57.4853 29.5586H47.5898V39.4541H57.4853V29.5586Z" fill="#BFFB4F"/>
<defs>
<clipPath id="clip0_218_3699">
<rect width="240" height="240" fill="white" transform="translate(121.59 5)"/>
</clipPath>
</defs>
</svg>
