<svg width="65" height="65" viewBox="0 0 65 65" fill="none" xmlns="http://www.w3.org/2000/svg">
<g clip-path="url(#clip0_218_3665)">
<path d="M56.8798 55.1562H53.8398V64.2962H56.8798V55.1562Z" fill="#BFFB4F"/>
<path d="M53.8413 52.1172H50.7812V55.1572H53.8413V52.1172Z" fill="#BFFB4F"/>
<path d="M50.7822 55.1562H47.7422V58.1963H50.7822V55.1562Z" fill="#BFFB4F"/>
<path d="M50.7822 49.0547H47.7422V52.1147H50.7822V49.0547Z" fill="#BFFB4F"/>
<path d="M47.7397 58.1953H44.6797V61.2553H47.7397V58.1953Z" fill="#BFFB4F"/>
<path d="M47.7406 46.0156H41.6406V49.0556H47.7406V46.0156Z" fill="#BFFB4F"/>
<path d="M47.7397 21.6367H44.6797V30.7767H47.7397V21.6367Z" fill="#BFFB4F"/>
<path d="M44.6806 61.2578H41.6406V64.2978H44.6806V61.2578Z" fill="#BFFB4F"/>
<path d="M44.6806 30.7773H41.6406V33.8173H44.6806V30.7773Z" fill="#BFFB4F"/>
<path d="M44.6816 18.5781H38.6016V21.6381H44.6816V18.5781Z" fill="#BFFB4F"/>
<path d="M41.6416 49.0547H38.6016V52.1147H41.6416V49.0547Z" fill="#BFFB4F"/>
<path d="M41.643 42.957H35.543V46.017H41.643V42.957Z" fill="#BFFB4F"/>
<path d="M41.6416 33.8164H38.6016V36.8764H41.6416V33.8164Z" fill="#BFFB4F"/>
<path d="M38.603 52.1172H35.543V55.1572H38.603V52.1172Z" fill="#BFFB4F"/>
<path d="M38.603 36.875H35.543V39.915H38.603V36.875Z" fill="#BFFB4F"/>
<path d="M38.603 21.6367H35.543V24.6767H38.603V21.6367Z" fill="#BFFB4F"/>
<path d="M35.54 55.1562H32.5V58.1963H35.54V55.1562Z" fill="#BFFB4F"/>
<path d="M35.54 39.918H32.5V42.958H35.54V39.918Z" fill="#BFFB4F"/>
<path d="M35.54 24.6758H32.5V27.7158H35.54V24.6758Z" fill="#BFFB4F"/>
<path d="M32.5009 42.957H29.4609V46.017H32.5009V42.957Z" fill="#BFFB4F"/>
<path d="M32.5009 27.7188H29.4609V30.7787H32.5009V27.7188Z" fill="#BFFB4F"/>
<path d="M29.4623 46.0156H26.4023V49.0556H29.4623V46.0156Z" fill="#BFFB4F"/>
<path d="M29.4623 30.7773H26.4023V33.8173H29.4623V30.7773Z" fill="#BFFB4F"/>
<path d="M26.3994 33.8164H23.3594V36.8764H26.3994V33.8164Z" fill="#BFFB4F"/>
<path d="M26.3994 24.6758H23.3594V30.7758H26.3994V24.6758Z" fill="#BFFB4F"/>
<path d="M23.3608 36.875H20.3008V39.915H23.3608V36.875Z" fill="#BFFB4F"/>
<path d="M20.3017 0.296875V3.33687H17.2617V9.43688H20.3017V12.4969H23.3617V15.5369H26.4017V18.5769H29.4617V15.5369H32.5017V12.4969H35.5417V9.43688H38.6017V3.33687H35.5417V0.296875H29.4617V3.33687H26.4017V0.296875H20.3017Z" fill="#BFFB4F"/>
<path d="M23.3627 21.6367H14.2227V24.6767H23.3627V21.6367Z" fill="#BFFB4F"/>
<path d="M17.2627 33.8164H14.2227V46.0164H17.2627V42.9564H20.3027V39.9164H17.2627V33.8164Z" fill="#BFFB4F"/>
<path d="M14.2202 46.0156H11.1602V49.0556H14.2202V46.0156Z" fill="#BFFB4F"/>
<path d="M14.2202 24.6758H11.1602V33.8158H14.2202V24.6758Z" fill="#BFFB4F"/>
<path d="M11.1611 49.0586H8.12109V64.2986H11.1611V49.0586Z" fill="#BFFB4F"/>
</g>
<defs>
<clipPath id="clip0_218_3665">
<rect width="64" height="64" fill="white" transform="translate(0.5 0.296875)"/>
</clipPath>
</defs>
</svg>
