<svg width="91" height="90" viewBox="0 0 91 90" fill="none" xmlns="http://www.w3.org/2000/svg">
<path d="M87.8869 23.7227H83.6143V27.9673H87.8869V23.7227Z" fill="#BFFB4F"/>
<path d="M83.6158 27.9648H79.3711V32.2375H83.6158V27.9648Z" fill="#BFFB4F"/>
<path d="M83.6158 19.4766H79.3711V23.7212H83.6158V19.4766Z" fill="#BFFB4F"/>
<path d="M79.3726 23.7227H75.1279V27.9673H79.3726V23.7227Z" fill="#BFFB4F"/>
<path d="M75.1247 79.0432V74.7706H79.3694V70.5259H75.1247V66.2812H70.8521V70.5259H66.6074V74.7706H70.8521V79.0432H75.1247Z" fill="#BFFB4F"/>
<path d="M75.1232 36.4805H70.8506V44.9978H75.1232V36.4805Z" fill="#BFFB4F"/>
<path d="M70.8521 45H66.6074V49.2447H70.8521V45Z" fill="#BFFB4F"/>
<path d="M70.8521 10.9609H66.6074V15.2056H70.8521V10.9609Z" fill="#BFFB4F"/>
<path d="M66.6076 49.2461H62.335V53.5187H66.6076V49.2461Z" fill="#BFFB4F"/>
<path d="M66.6076 15.2031H62.335V19.4757H66.6076V15.2031Z" fill="#BFFB4F"/>
<path d="M62.3365 53.5195H58.0918V57.7642H62.3365V53.5195Z" fill="#BFFB4F"/>
<path d="M62.3365 19.4766H58.0918V23.7212H62.3365V19.4766Z" fill="#BFFB4F"/>
<path d="M58.0884 57.7617H53.8438V62.0064H58.0884V57.7617Z" fill="#BFFB4F"/>
<path d="M58.0884 23.7227H53.8438V27.9673H58.0884V23.7227Z" fill="#BFFB4F"/>
<path d="M53.8439 83.2852H49.5713V87.5578H53.8439V83.2852Z" fill="#BFFB4F"/>
<path d="M53.8439 62.0039H49.5713V66.2765H53.8439V62.0039Z" fill="#BFFB4F"/>
<path d="M49.5777 27.9648V32.2375H45.333V36.4821H70.8569V32.2375H53.8503V27.9648H49.5777Z" fill="#BFFB4F"/>
<path d="M49.5777 66.2812H45.333V70.5259H49.5777V66.2812Z" fill="#BFFB4F"/>
<path d="M70.8536 6.68609V10.9587H75.1262V2.44141H41.085V6.68609H70.8536Z" fill="#BFFB4F"/>
<path d="M45.3296 70.5234H41.085V74.7681H45.3296V70.5234Z" fill="#BFFB4F"/>
<path d="M41.0802 74.7695H36.8076V79.0421H41.0802V74.7695Z" fill="#BFFB4F"/>
<path d="M41.0802 6.6875H36.8076V10.9601H41.0802V6.6875Z" fill="#BFFB4F"/>
<path d="M36.8091 79.043H32.5645V83.2876H36.8091V79.043Z" fill="#BFFB4F"/>
<path d="M36.8091 45H11.2852V49.2447H32.5644V57.762H36.8091V45Z" fill="#BFFB4F"/>
<path d="M36.8091 10.9609H32.5645V15.2056H36.8091V10.9609Z" fill="#BFFB4F"/>
<path d="M32.5695 83.2852H28.2969V87.5578H32.5695V83.2852Z" fill="#BFFB4F"/>
<path d="M32.5695 57.7617H28.2969V70.5237H32.5695V57.7617Z" fill="#BFFB4F"/>
<path d="M32.5695 15.2031H28.2969V19.4757H32.5695V15.2031Z" fill="#BFFB4F"/>
<path d="M28.2935 70.5234H24.0488V83.2854H28.2935V70.5234Z" fill="#BFFB4F"/>
<path d="M28.2935 19.4766H24.0488V23.7212H28.2935V19.4766Z" fill="#BFFB4F"/>
<path d="M24.0503 23.7227H19.8057V27.9673H24.0503V23.7227Z" fill="#BFFB4F"/>
<path d="M19.8009 27.9648H15.5283V32.2375H19.8009V27.9648Z" fill="#BFFB4F"/>
<path d="M15.5298 62.0039H11.2852V66.2765H15.5298V62.0039Z" fill="#BFFB4F"/>
<path d="M15.5298 32.2383H11.2852V36.483H15.5298V32.2383Z" fill="#BFFB4F"/>
<path d="M11.2818 2.44141V6.68609H7.03711V10.9587H11.2818V15.2034H15.5265V10.9587H19.7991V6.68609H15.5265V2.44141H11.2818Z" fill="#BFFB4F"/>
<path d="M11.2818 66.2812H7.03711V70.5259H11.2818V66.2812Z" fill="#BFFB4F"/>
<path d="M11.2818 57.7617H7.03711V62.0064H11.2818V57.7617Z" fill="#BFFB4F"/>
<path d="M11.2818 36.4805H7.03711V44.9978H11.2818V36.4805Z" fill="#BFFB4F"/>
<path d="M7.04214 62.0039H2.76953V66.2765H7.04214V62.0039Z" fill="#BFFB4F"/>
</svg>
