<svg width="90" height="90" viewBox="0 0 90 90" fill="none" xmlns="http://www.w3.org/2000/svg">
<g clip-path="url(#clip0_218_3840)">
<path d="M89.6828 34.375H85.4102V51.3816H89.6828V34.375Z" fill="#BFFB4F"/>
<path d="M85.4068 51.3828H81.1621V55.6554H85.4068V51.3828Z" fill="#BFFB4F"/>
<path d="M85.4068 30.1016H81.1621V34.3742H85.4068V30.1016Z" fill="#BFFB4F"/>
<path d="M81.1636 55.6562H76.9189V59.9009H81.1636V55.6562Z" fill="#BFFB4F"/>
<path d="M81.1636 25.8594H76.9189V30.1041H81.1636V25.8594Z" fill="#BFFB4F"/>
<path d="M68.4035 21.6125V17.3398H64.1309V25.8571H76.9208V21.6125H68.4035Z" fill="#BFFB4F"/>
<path d="M76.9174 59.8984H59.8828V64.1431H76.9174V59.8984Z" fill="#BFFB4F"/>
<path d="M64.1275 25.8594H59.8828V30.1041H64.1275V25.8594Z" fill="#BFFB4F"/>
<path d="M64.1275 13.0977H59.8828V17.3423H64.1275V13.0977Z" fill="#BFFB4F"/>
<path d="M59.8843 30.1016H55.6396V34.3742H59.8843V30.1016Z" fill="#BFFB4F"/>
<path d="M59.8796 8.82422H51.3623V13.0968H59.8796V8.82422Z" fill="#BFFB4F"/>
<path d="M38.6052 55.6562V68.4182H30.0879V72.6629H34.3605V76.9076H38.6052V81.1802H42.8778V85.4249H47.1225V81.1802H51.3672V76.9076H55.6398V72.6629H59.8844V68.4182H51.3672V55.6562H38.6052Z" fill="#BFFB4F"/>
<path d="M51.3655 4.57812H38.6035V8.82281H51.3655V4.57812Z" fill="#BFFB4F"/>
<path d="M34.3605 34.375H30.0879V38.6197H34.3605V34.375Z" fill="#BFFB4F"/>
<path d="M38.6052 8.82422H30.0879V13.0968H38.6052V8.82422Z" fill="#BFFB4F"/>
<path d="M30.0894 30.1016H25.8447V34.3742H30.0894V30.1016Z" fill="#BFFB4F"/>
<path d="M30.0894 13.0977H25.8447V17.3423H30.0894V13.0977Z" fill="#BFFB4F"/>
<path d="M21.595 25.8571H8.83301V30.1018H25.8397V17.3398H21.595V25.8571Z" fill="#BFFB4F"/>
<path d="M30.0843 59.8984H8.83301V64.1431H30.0843V59.8984Z" fill="#BFFB4F"/>
<path d="M8.83315 55.6562H4.56055V59.9009H8.83315V55.6562Z" fill="#BFFB4F"/>
<path d="M8.83315 30.1016H4.56055V34.3742H8.83315V30.1016Z" fill="#BFFB4F"/>
<path d="M4.56206 34.375H0.317383V55.6543H4.56206V34.375Z" fill="#BFFB4F"/>
</g>
<defs>
<clipPath id="clip0_218_3840">
<rect width="89.3617" height="89.3617" fill="white" transform="translate(0.317383 0.320312)"/>
</clipPath>
</defs>
</svg>
