<svg width="91" height="90" viewBox="0 0 91 90" fill="none" xmlns="http://www.w3.org/2000/svg">
<path d="M73.338 32.2352H81.8274V23.7179H77.5827V19.4453H69.0654V27.9626H73.338V32.2352Z" fill="#BFFB4F"/>
<path d="M77.5826 40.7266H73.3379V70.5231H77.5826V40.7266Z" fill="#BFFB4F"/>
<path d="M73.338 70.5234H69.0654V79.0407H73.338V70.5234Z" fill="#BFFB4F"/>
<path d="M73.338 32.2383H69.0654V40.7276H73.338V32.2383Z" fill="#BFFB4F"/>
<path d="M69.0669 62.0039H64.8223V66.2765H69.0669V62.0039Z" fill="#BFFB4F"/>
<path d="M69.0669 53.4883H64.8223V57.7609H69.0669V53.4883Z" fill="#BFFB4F"/>
<path d="M69.0669 45H64.8223V49.2447H69.0669V45Z" fill="#BFFB4F"/>
<path d="M69.0636 79.043H60.5742V83.2876H69.0636V79.043Z" fill="#BFFB4F"/>
<path d="M64.8189 70.5234H60.5742V74.7681H64.8189V70.5234Z" fill="#BFFB4F"/>
<path d="M64.8189 36.4805H60.5742V40.7252H64.8189V36.4805Z" fill="#BFFB4F"/>
<path d="M69.0636 27.9648H60.5742V32.2375H69.0636V27.9648Z" fill="#BFFB4F"/>
<path d="M64.8189 6.6875H60.5742V15.2048H64.8189V6.6875Z" fill="#BFFB4F"/>
<path d="M39.2949 57.762H43.5396V62.0067H47.7843V57.762H60.5742V53.4894H47.7843V45H43.5396V53.4894H39.2949V57.762Z" fill="#BFFB4F"/>
<path d="M60.5758 83.2852H30.7793V87.5578H60.5758V83.2852Z" fill="#BFFB4F"/>
<path d="M56.3082 74.7695H52.0635V79.0421H56.3082V74.7695Z" fill="#BFFB4F"/>
<path d="M56.3082 32.2383H52.0635V36.483H56.3082V32.2383Z" fill="#BFFB4F"/>
<path d="M47.7828 74.7695H43.5381V79.0421H47.7828V74.7695Z" fill="#BFFB4F"/>
<path d="M47.7828 32.2383H43.5381V36.483H47.7828V32.2383Z" fill="#BFFB4F"/>
<path d="M39.3 74.7695H35.0273V79.0421H39.3V74.7695Z" fill="#BFFB4F"/>
<path d="M39.3 32.2383H35.0273V36.483H39.3V32.2383Z" fill="#BFFB4F"/>
<path d="M60.5758 27.9653V23.7207H52.0586V19.4481H60.5758V15.2034H56.3032V6.68609H60.5758V2.44141H30.7793V6.68609H35.024V15.2034H30.7793V19.4481H39.2966V23.7207H30.7793V27.9653H60.5758ZM47.7859 6.68609H52.0586V15.2034H47.7859V6.68609ZM47.7859 23.7207H43.5413V19.4481H47.7859V23.7207ZM39.2966 6.68609H43.5413V15.2034H39.2966V6.68609Z" fill="#BFFB4F"/>
<path d="M30.7761 79.043H22.2588V83.2876H30.7761V79.043Z" fill="#BFFB4F"/>
<path d="M30.7808 70.5234H26.5361V74.7681H30.7808V70.5234Z" fill="#BFFB4F"/>
<path d="M30.7808 36.4805H26.5361V40.7252H30.7808V36.4805Z" fill="#BFFB4F"/>
<path d="M30.7808 6.6875H26.5361V15.2048H30.7808V6.6875Z" fill="#BFFB4F"/>
<path d="M26.5314 62.0039H22.2588V66.2765H26.5314V62.0039Z" fill="#BFFB4F"/>
<path d="M26.5314 53.4883H22.2588V57.7609H26.5314V53.4883Z" fill="#BFFB4F"/>
<path d="M26.5314 45H22.2588V49.2447H26.5314V45Z" fill="#BFFB4F"/>
<path d="M30.7761 27.9648H22.2588V32.2375H30.7761V27.9648Z" fill="#BFFB4F"/>
<path d="M22.2603 70.5234H18.0156V79.0407H22.2603V70.5234Z" fill="#BFFB4F"/>
<path d="M22.2603 32.2383H18.0156V40.7276H22.2603V32.2383Z" fill="#BFFB4F"/>
<path d="M13.7447 19.4453V23.7179H9.5V32.2352H18.0173V27.9626H22.262V19.4453H13.7447Z" fill="#BFFB4F"/>
<path d="M18.0158 40.7266H13.7432V70.5231H18.0158V40.7266Z" fill="#BFFB4F"/>
</svg>
