<svg width="166" height="166" viewBox="0 0 166 166" fill="none" xmlns="http://www.w3.org/2000/svg">
<g clip-path="url(#clip0_218_4349)">
<path d="M162.033 110.648H154.148V150.177H162.033V110.648Z" fill="#181818"/>
<path d="M154.148 150.18H146.211V158.117H154.148V150.18Z" fill="#181818"/>
<path d="M154.148 102.766H146.211V110.651H154.148V102.766Z" fill="#181818"/>
<path d="M154.148 31.5938H146.211V55.3525H154.148V31.5938Z" fill="#181818"/>
<path d="M146.209 158.117H138.324V166.002H146.209V158.117Z" fill="#181818"/>
<path d="M146.209 94.8281H138.324V102.765H146.209V94.8281Z" fill="#181818"/>
<path d="M106.734 86.9434V55.3516H98.7969V94.8284H138.326V86.9434H106.734Z" fill="#181818"/>
<path d="M146.211 55.3516H122.504V63.2366H146.211V55.3516Z" fill="#181818"/>
<path d="M146.211 23.707H122.504V31.592H146.211V23.707Z" fill="#181818"/>
<path d="M130.441 102.766H122.504V126.472H130.441V102.766Z" fill="#181818"/>
<path d="M122.502 31.5938H114.617V55.3525H122.502V31.5938Z" fill="#181818"/>
<path d="M114.619 0H106.734V7.885H114.619V0Z" fill="#181818"/>
<path d="M106.734 102.766H98.7969V126.472H106.734V102.766Z" fill="#181818"/>
<path d="M106.734 7.88281H98.7969V15.8197H106.734V7.88281Z" fill="#181818"/>
<path d="M98.7945 47.4141H82.9727V55.3509H98.7945V47.4141Z" fill="#181818"/>
<path d="M82.9748 150.18H75.0898V166.002H82.9748V150.18Z" fill="#181818"/>
<path d="M75.0875 94.8284H59.2656V102.765H75.0875V118.587H82.9725V55.3516H75.0875V94.8284Z" fill="#181818"/>
<path d="M82.9748 0H75.0898V15.8219H82.9748V0Z" fill="#181818"/>
<path d="M75.0881 142.293H67.2031V150.178H75.0881V142.293Z" fill="#181818"/>
<path d="M67.2025 134.355H59.2656V142.292H67.2025V134.355Z" fill="#181818"/>
<path d="M67.2025 31.592H59.2656V55.3508H67.2025V47.4139H75.0875V39.5289H98.7944V31.592H90.9094V23.707H67.2025V31.592Z" fill="#181818"/>
<path d="M59.2678 102.766H51.3828V134.358H59.2678V102.766Z" fill="#181818"/>
<path d="M59.2678 7.88281H51.3828V15.8197H59.2678V7.88281Z" fill="#181818"/>
<path d="M51.3811 0H43.4961V7.885H51.3811V0Z" fill="#181818"/>
<path d="M43.4994 94.8281H35.5625V118.587H43.4994V94.8281Z" fill="#181818"/>
<path d="M43.4994 31.5938H35.5625V55.3525H43.4994V31.5938Z" fill="#181818"/>
<path d="M35.5623 118.586H11.8555V126.471H35.5623V118.586Z" fill="#181818"/>
<path d="M35.5623 86.9414H11.8555V94.8264H35.5623V86.9414Z" fill="#181818"/>
<path d="M35.5623 55.3516H11.8555V63.2366H35.5623V55.3516Z" fill="#181818"/>
<path d="M35.5623 23.707H11.8555V31.592H35.5623V23.707Z" fill="#181818"/>
<path d="M11.8538 94.8281H3.96875V118.587H11.8538V94.8281Z" fill="#181818"/>
<path d="M11.8538 31.5938H3.96875V55.3525H11.8538V31.5938Z" fill="#181818"/>
</g>
<defs>
<clipPath id="clip0_218_4349">
<rect width="166" height="166" fill="white"/>
</clipPath>
</defs>
</svg>
