<svg width="32" height="32" viewBox="0 0 32 32" fill="none" xmlns="http://www.w3.org/2000/svg">
<path d="M31.2348 9.14453H29.7148V12.1845H31.2348V9.14453Z" fill="#BFFB4F"/>
<path d="M29.715 7.61328H26.665V9.14328H29.715V7.61328Z" fill="#BFFB4F"/>
<path d="M26.6645 18.2845H28.1945V13.7145H29.7145V12.1845H26.6645V9.14453H25.1445V13.7145H26.6645V18.2845Z" fill="#BFFB4F"/>
<path d="M25.145 19.8052H23.615V21.3352H25.145V22.8552H6.85496V21.3352H8.38496V19.8052H6.85496V18.2852H5.33496V25.9052H6.85496V27.4252H25.145V25.9052H26.665V18.2852H25.145V19.8052Z" fill="#BFFB4F"/>
<path d="M25.1443 13.7148H23.6143V15.2348H25.1443V13.7148Z" fill="#BFFB4F"/>
<path d="M23.6147 15.2344H22.0947V16.7644H23.6147V15.2344Z" fill="#BFFB4F"/>
<path d="M22.0942 16.7656H20.5742V18.2856H22.0942V16.7656Z" fill="#BFFB4F"/>
<path d="M22.0949 19.8047H19.0449V21.3347H22.0949V19.8047Z" fill="#BFFB4F"/>
<path d="M20.5749 13.7148H19.0449V16.7648H20.5749V13.7148Z" fill="#BFFB4F"/>
<path d="M19.0444 10.6641H17.5244V13.7141H19.0444V10.6641Z" fill="#BFFB4F"/>
<path d="M19.0444 6.09375H17.5244V9.14375H19.0444V6.09375Z" fill="#BFFB4F"/>
<path d="M17.5246 9.14453H14.4746V10.6645H17.5246V9.14453Z" fill="#BFFB4F"/>
<path d="M17.5246 4.57422H14.4746V6.09422H17.5246V4.57422Z" fill="#BFFB4F"/>
<path d="M17.5246 18.2852H14.4746V21.3352H17.5246V18.2852Z" fill="#BFFB4F"/>
<path d="M14.4751 10.6641H12.9551V13.7141H14.4751V10.6641Z" fill="#BFFB4F"/>
<path d="M14.4751 6.09375H12.9551V9.14375H14.4751V6.09375Z" fill="#BFFB4F"/>
<path d="M12.9548 13.7148H11.4248V16.7648H12.9548V13.7148Z" fill="#BFFB4F"/>
<path d="M12.9543 19.8047H9.9043V21.3347H12.9543V19.8047Z" fill="#BFFB4F"/>
<path d="M11.4243 16.7656H9.9043V18.2856H11.4243V16.7656Z" fill="#BFFB4F"/>
<path d="M9.90477 15.2344H8.38477V16.7644H9.90477V15.2344Z" fill="#BFFB4F"/>
<path d="M8.38449 13.7148H6.85449V15.2348H8.38449V13.7148Z" fill="#BFFB4F"/>
<path d="M2.28418 12.1845V13.7145H3.81418V18.2845H5.33418V13.7145H6.85418V9.14453H5.33418V12.1845H2.28418Z" fill="#BFFB4F"/>
<path d="M5.33418 7.61328H2.28418V9.14328H5.33418V7.61328Z" fill="#BFFB4F"/>
<path d="M2.28465 9.14453H0.764648V12.1845H2.28465V9.14453Z" fill="#BFFB4F"/>
</svg>
