<svg width="51" height="50" viewBox="0 0 51 50" fill="none" xmlns="http://www.w3.org/2000/svg">
<g clip-path="url(#clip0_218_4019)">
<path d="M47.8984 14.2813H45.5078V9.51562H43.1328V7.14063H40.7422V4.76562H35.9922V2.375H31.2266V0H19.3203V2.375H14.5547V4.76562H9.78906V7.14063H7.41406V9.51562H5.03906V14.2813H2.64844V19.0469H0.273438V30.9531H2.64844V35.7188H5.03906V40.4688H7.41406V42.8594H9.78906V45.2344H14.5547V47.625H19.3203V50H31.2266V47.625H35.9922V45.2344H40.7422V42.8594H43.1328V40.4688H45.5078V35.7188H47.8984V30.9531H50.2734V19.0469H47.8984V14.2813ZM31.2266 40.4688H28.8516V42.8594H21.6953V40.4688H19.3203V33.3281H21.6953V30.9531H28.8516V33.3281H31.2266V40.4688ZM33.6016 21.4219H31.2266V26.1875H28.8516V28.5781H21.6953V26.1875H19.3203V21.4219H16.9453V9.51562H19.3203V7.14063H31.2266V9.51562H33.6016V21.4219Z" fill="#181818"/>
<path d="M31.2246 11.9062H28.8496V19.0469H31.2246V11.9062Z" fill="#181818"/>
<path d="M28.8545 9.51562H26.4639V11.9062H28.8545V9.51562Z" fill="#181818"/>
</g>
<defs>
<clipPath id="clip0_218_4019">
<rect width="50" height="50" fill="white" transform="translate(0.273438)"/>
</clipPath>
</defs>
</svg>
