<svg width="349" height="115" viewBox="0 0 349 115" fill="none" xmlns="http://www.w3.org/2000/svg">
<g clip-path="url(#clip0_218_4259)">
<path d="M94.2583 18.9141H89.1758V85.7907H94.2583V18.9141Z" fill="#BFFB4F"/>
<path d="M84.0612 96.0856H33.1359V90.9542H28.02V96.0856H22.9375V111.513H94.2597V96.0856H89.1772V85.7891H84.0612V96.0856ZM84.0612 106.382H73.8962V101.217H84.0612V106.382Z" fill="#BFFB4F"/>
<path d="M89.175 13.7812H78.9766V18.9126H89.175V13.7812Z" fill="#BFFB4F"/>
<path d="M73.8938 65.2305H63.6953V70.3618H73.8938V65.2305Z" fill="#BFFB4F"/>
<path d="M53.4997 70.3594H38.2188V75.4907H53.4997V70.3594Z" fill="#BFFB4F"/>
<path d="M43.3012 49.7694H38.2188V54.9346H48.4172V39.5067H58.6156V54.9346H48.4172V60.0659H53.4997V70.3624H58.6156V65.2311H63.6981V39.5067H73.8966V65.2311H78.9791V18.9137H73.8966V34.3416H48.4172V8.61719H43.3012V49.7694Z" fill="#BFFB4F"/>
<path d="M43.3017 3.48438H33.1367V8.61575H43.3017V3.48438Z" fill="#BFFB4F"/>
<path d="M38.2192 65.2305H33.1367V70.3618H38.2192V65.2305Z" fill="#BFFB4F"/>
<path d="M38.2184 49.7694V44.6381H33.1359V8.61719H28.02V44.6381H22.9375V49.7694H38.2184Z" fill="#BFFB4F"/>
<path d="M28.02 85.7891H22.9375V90.9542H28.02V85.7891Z" fill="#BFFB4F"/>
<path d="M22.938 75.4922H17.8555V85.7887H22.938V75.4922Z" fill="#BFFB4F"/>
<path d="M22.938 49.7695H17.8555V54.9347H22.938V49.7695Z" fill="#BFFB4F"/>
<path d="M17.8542 54.9336H12.7383V75.4928H17.8542V54.9336Z" fill="#BFFB4F"/>
</g>
<g clip-path="url(#clip1_218_4259)">
<path d="M232.001 30.1133H226.551V57.4977H232.001V30.1133Z" fill="#BFFB4F"/>
<path d="M226.548 57.5H221.133V68.4609H226.548V57.5Z" fill="#BFFB4F"/>
<path d="M226.548 24.6523H221.133V30.1148H226.548V24.6523Z" fill="#BFFB4F"/>
<path d="M221.134 68.4609H215.719V73.9234H221.134V68.4609Z" fill="#BFFB4F"/>
<path d="M221.134 35.5781H215.719V46.5391H221.134V35.5781Z" fill="#BFFB4F"/>
<path d="M221.134 19.1523H215.719V24.6508H221.134V19.1523Z" fill="#BFFB4F"/>
<path d="M215.72 30.1133H210.27V35.5758H215.72V30.1133Z" fill="#BFFB4F"/>
<path d="M215.721 73.9219H204.855V79.3844H215.721V73.9219Z" fill="#BFFB4F"/>
<path d="M210.268 24.6523H199.402V30.1148H210.268V24.6523Z" fill="#BFFB4F"/>
<path d="M204.854 79.3867H193.988V84.8852H204.854V79.3867Z" fill="#BFFB4F"/>
<path d="M215.72 13.6914H188.574V19.1539H215.72V13.6914Z" fill="#BFFB4F"/>
<path d="M193.987 84.8828H183.121V90.3453H193.987V84.8828Z" fill="#BFFB4F"/>
<path d="M188.572 19.1523H183.121V24.6508H188.572V19.1523Z" fill="#BFFB4F"/>
<path d="M183.122 90.3477H177.707V95.8102H183.122V90.3477Z" fill="#BFFB4F"/>
<path d="M183.122 24.6523H177.707V30.1148H183.122V24.6523Z" fill="#BFFB4F"/>
<path d="M177.708 95.8086H172.293V101.307H177.708V95.8086Z" fill="#BFFB4F"/>
<path d="M177.708 30.1133H172.293V35.5758H177.708V30.1133Z" fill="#BFFB4F"/>
<path d="M172.294 90.3477H166.844V95.8102H172.294V90.3477Z" fill="#BFFB4F"/>
<path d="M172.294 24.6523H166.844V30.1148H172.294V24.6523Z" fill="#BFFB4F"/>
<path d="M166.842 84.8828H155.977V90.3453H166.842V84.8828Z" fill="#BFFB4F"/>
<path d="M166.841 19.1523H161.426V24.6508H166.841V19.1523Z" fill="#BFFB4F"/>
<path d="M155.975 79.3867H145.145V84.8852H155.975V79.3867Z" fill="#BFFB4F"/>
<path d="M145.147 73.9219H134.281V79.3844H145.147V73.9219Z" fill="#BFFB4F"/>
<path d="M161.427 13.6914H134.281V19.1539H161.427V13.6914Z" fill="#BFFB4F"/>
<path d="M134.282 68.4609H128.867V73.9234H134.282V68.4609Z" fill="#BFFB4F"/>
<path d="M134.282 19.1523H128.867V24.6508H134.282V19.1523Z" fill="#BFFB4F"/>
<path d="M128.865 57.5H123.414V68.4609H128.865V57.5Z" fill="#BFFB4F"/>
<path d="M128.865 24.6523H123.414V30.1148H128.865V24.6523Z" fill="#BFFB4F"/>
<path d="M123.415 30.1133H118V57.4977H123.415V30.1133Z" fill="#BFFB4F"/>
</g>
<path d="M323.758 65.1581V70.2406H333.861V85.5216H338.896V49.8438H333.861V65.1581H323.758Z" fill="#BFFB4F"/>
<path d="M328.824 95.718H278.341V90.6355H273.273V95.718H268.238V110.999H338.894V95.718H333.859V85.5195H328.824V95.718ZM328.824 105.916H318.721V100.8H328.824V105.916Z" fill="#BFFB4F"/>
<path d="M318.723 65.1586H323.758V49.8442H333.861V44.7617H318.723V65.1586Z" fill="#BFFB4F"/>
<path d="M323.758 9.08203H318.723V24.3964H323.758V9.08203Z" fill="#BFFB4F"/>
<path d="M318.72 24.3984H313.652V34.5634H318.72V24.3984Z" fill="#BFFB4F"/>
<path d="M318.72 65.1562H308.617V70.2387H318.72V65.1562Z" fill="#BFFB4F"/>
<path d="M308.617 44.7609H318.72V39.6784H313.652V34.5625H308.617V44.7609Z" fill="#BFFB4F"/>
<path d="M318.724 4H303.586V9.0825H318.724V4Z" fill="#BFFB4F"/>
<path d="M303.584 70.2411V65.1586H308.619V44.7617H303.584V60.0427H298.516V70.2411H303.584Z" fill="#BFFB4F"/>
<path d="M303.584 9.08203H298.516V24.3964H303.584V9.08203Z" fill="#BFFB4F"/>
<path d="M298.515 54.9609H293.48V60.0434H298.515V54.9609Z" fill="#BFFB4F"/>
<path d="M298.515 24.3984H293.48V34.5634H298.515V24.3984Z" fill="#BFFB4F"/>
<path d="M298.517 70.2383H283.379V75.3208H298.517V70.2383Z" fill="#BFFB4F"/>
<path d="M293.482 49.8438H283.379V54.9597H293.482V49.8438Z" fill="#BFFB4F"/>
<path d="M288.447 39.6784V44.7609H293.482V34.5625H283.379V39.6784H288.447Z" fill="#BFFB4F"/>
<path d="M283.379 65.1562H278.344V70.2387H283.379V65.1562Z" fill="#BFFB4F"/>
<path d="M283.379 24.3984H278.344V34.5634H283.379V24.3984Z" fill="#BFFB4F"/>
<path d="M283.376 44.7617H268.238V49.8442H283.376V44.7617Z" fill="#BFFB4F"/>
<path d="M278.342 9.08203H273.273V24.3964H278.342V9.08203Z" fill="#BFFB4F"/>
<path d="M273.273 85.5195H268.238V90.6355H273.273V85.5195Z" fill="#BFFB4F"/>
<path d="M268.238 75.3203H263.203V85.5187H268.238V75.3203Z" fill="#BFFB4F"/>
<path d="M268.238 49.8438H263.203V54.9597H268.238V49.8438Z" fill="#BFFB4F"/>
<path d="M268.238 34.5625H263.203V44.7609H268.238V34.5625Z" fill="#BFFB4F"/>
<path d="M273.275 4H258.137V9.0825H273.275V4Z" fill="#BFFB4F"/>
<path d="M263.205 54.957H258.137V75.3205H263.205V54.957Z" fill="#BFFB4F"/>
<path d="M263.205 24.3984H258.137V34.5634H263.205V24.3984Z" fill="#BFFB4F"/>
<path d="M258.137 9.08203H253.102V24.3964H258.137V9.08203Z" fill="#BFFB4F"/>
<defs>
<clipPath id="clip0_218_4259">
<rect width="107" height="108.029" fill="white" transform="translate(0 3.48438)"/>
</clipPath>
<clipPath id="clip1_218_4259">
<rect width="114" height="115" fill="white" transform="translate(118)"/>
</clipPath>
</defs>
</svg>
