<svg width="166" height="166" viewBox="0 0 166 166" fill="none" xmlns="http://www.w3.org/2000/svg">
<g clip-path="url(#clip0_218_4392)">
<path d="M158.088 86.9414H150.203V126.47H158.088V86.9414Z" fill="#2B2B2B"/>
<path d="M150.203 7.88281H142.266V39.5266H150.203V7.88281Z" fill="#2B2B2B"/>
<path d="M142.268 86.943H150.205V79.058H142.268V71.1211H134.383V150.179H142.268V134.357H150.205V126.472H142.268V86.943Z" fill="#2B2B2B"/>
<path d="M142.268 39.5273H134.383V47.4123H142.268V39.5273Z" fill="#2B2B2B"/>
<path d="M142.268 0H134.383V7.885H142.268V0Z" fill="#2B2B2B"/>
<path d="M134.382 150.18H126.445V158.117H134.382V150.18Z" fill="#2B2B2B"/>
<path d="M134.382 63.2344H126.445V71.1194H134.382V63.2344Z" fill="#2B2B2B"/>
<path d="M126.444 86.9414H118.559V102.763H126.444V86.9414Z" fill="#2B2B2B"/>
<path d="M126.444 15.8203H118.559V31.5903H126.444V15.8203Z" fill="#2B2B2B"/>
<path d="M126.446 158.117H39.5039V166.002H126.446V158.117Z" fill="#2B2B2B"/>
<path d="M118.56 79.0586H102.738V86.9436H118.56V79.0586Z" fill="#2B2B2B"/>
<path d="M118.561 31.5938H110.676V39.5306H118.561V31.5938Z" fill="#2B2B2B"/>
<path d="M118.561 7.88281H110.676V15.8197H118.561V7.88281Z" fill="#2B2B2B"/>
<path d="M118.56 102.766H102.738V110.651H118.56V102.766Z" fill="#2B2B2B"/>
<path d="M55.3242 126.473V134.358H63.2092V142.295H71.1461V150.18H94.853V142.295H102.738V134.358H110.675V126.473H55.3242Z" fill="#2B2B2B"/>
<path d="M102.737 86.9414H94.8516V102.763H102.737V86.9414Z" fill="#2B2B2B"/>
<path d="M71.1445 118.588H94.8514V110.651H86.9145V102.766H79.0295V110.651H71.1445V118.588Z" fill="#2B2B2B"/>
<path d="M71.1439 86.9414H63.207V102.763H71.1439V86.9414Z" fill="#2B2B2B"/>
<path d="M63.2075 102.766H47.4375V110.651H63.2075V102.766Z" fill="#2B2B2B"/>
<path d="M63.2075 79.0586H47.4375V86.9436H63.2075V79.0586Z" fill="#2B2B2B"/>
<path d="M126.446 63.2356V55.3506H86.9177V39.5287H94.8545V31.5919H102.74V7.885H94.8545V0H71.1477V7.885H63.2108V31.5919H71.1477V39.5287H79.0327V55.3506H39.5039V63.2356H126.446Z" fill="#2B2B2B"/>
<path d="M55.3225 31.5938H47.4375V39.5306H55.3225V31.5938Z" fill="#2B2B2B"/>
<path d="M55.3225 7.88281H47.4375V15.8197H55.3225V7.88281Z" fill="#2B2B2B"/>
<path d="M47.4408 86.9414H39.5039V102.763H47.4408V86.9414Z" fill="#2B2B2B"/>
<path d="M47.4408 15.8203H39.5039V31.5903H47.4408V15.8203Z" fill="#2B2B2B"/>
<path d="M39.5022 150.18H31.6172V158.117H39.5022V150.18Z" fill="#2B2B2B"/>
<path d="M39.5022 63.2344H31.6172V71.1194H39.5022V63.2344Z" fill="#2B2B2B"/>
<path d="M31.6187 71.1211H23.6819V79.058H15.7969V86.943H23.6819V126.472H15.7969V134.357H23.6819V150.179H31.6187V71.1211Z" fill="#2B2B2B"/>
<path d="M31.6166 39.5273H23.6797V47.4123H31.6166V39.5273Z" fill="#2B2B2B"/>
<path d="M31.6166 0H23.6797V7.885H31.6166V0Z" fill="#2B2B2B"/>
<path d="M23.6819 7.88281H15.7969V39.5266H23.6819V7.88281Z" fill="#2B2B2B"/>
<path d="M15.7952 86.9414H7.91016V126.47H15.7952V86.9414Z" fill="#2B2B2B"/>
</g>
<defs>
<clipPath id="clip0_218_4392">
<rect width="166" height="166" fill="white"/>
</clipPath>
</defs>
</svg>
