<svg width="67" height="67" viewBox="0 0 67 67" fill="none" xmlns="http://www.w3.org/2000/svg">
<path d="M63.8368 15.8698H3.59026V6.35938H0.40625V60.2587H3.59026V19.033H63.8368V60.2587H67V6.35938H63.8368V15.8698Z" fill="#BFFB4F"/>
<path d="M63.8363 60.2578H3.58984V63.421H63.8363V60.2578Z" fill="#BFFB4F"/>
<path d="M57.4913 41.2305H54.3281V50.7409H57.4913V41.2305Z" fill="#BFFB4F"/>
<path d="M54.3246 50.7461H51.1406V53.9093H54.3246V50.7461Z" fill="#BFFB4F"/>
<path d="M54.3246 38.0508H51.1406V41.2348H54.3246V38.0508Z" fill="#BFFB4F"/>
<path d="M51.1432 53.9062H41.6328V57.0903H51.1432V53.9062Z" fill="#BFFB4F"/>
<path d="M51.1436 38.0478V34.8846H47.9804V22.2109H9.91797V41.2318H16.2652V38.0478H13.102V25.3741H44.8172V34.8846H41.6332V38.0478H51.1436Z" fill="#BFFB4F"/>
<path d="M41.6319 50.7461H38.4688V53.9093H41.6319V50.7461Z" fill="#BFFB4F"/>
<path d="M41.6319 38.0508H38.4688V41.2348H41.6319V38.0508Z" fill="#BFFB4F"/>
<path d="M38.4731 41.2305H35.2891V50.7409H38.4731V41.2305Z" fill="#BFFB4F"/>
<path d="M22.6137 9.51562H19.4297V12.6788H22.6137V9.51562Z" fill="#BFFB4F"/>
<path d="M13.102 44.401V47.5851H9.91797V50.7483H32.1228V41.2378H28.9596V38.0538H25.7756V34.8906H22.6124V38.0538H19.4284V41.2378H16.2652V44.401H13.102Z" fill="#BFFB4F"/>
<path d="M16.2648 9.51562H13.1016V12.6788H16.2648V9.51562Z" fill="#BFFB4F"/>
<path d="M9.91711 9.51562H6.75391V12.6788H9.91711V9.51562Z" fill="#BFFB4F"/>
<path d="M63.8363 3.17188H3.58984V6.35589H63.8363V3.17188Z" fill="#BFFB4F"/>
</svg>
