<svg xmlns="http://www.w3.org/2000/svg" viewBox="0 0 496 496" id="Github--Streamline-Font-Awesome">
  <desc>
    Github Streamline Icon: https://streamlinehq.com
  </desc>
<!--! Font Awesome Free 6.5.2 by @fontawesome - https://fontawesome.com License - https://fontawesome.com/license/free (Icons: CC BY 4.0, Fonts: SIL OFL 1.1, Code: MIT License) Copyright 2024 Fonticons, Inc.-->
  <path d="M167.542 392.6444c0 1.96 -2.254 3.528 -5.096 3.528 -3.234 0.294 -5.488 -1.274 -5.488 -3.528 0 -1.96 2.254 -3.528 5.096 -3.528 2.94 -0.294 5.488 1.274 5.488 3.528Zm-30.478 -4.41c-0.686 1.96 1.274 4.214 4.214 4.802 2.548 0.98 5.488 0 6.076 -1.96s-1.274 -4.214 -4.214 -5.096c-2.548 -0.686 -5.39 0.294 -6.076 2.254Zm43.316 -1.666c-2.842 0.686 -4.802 2.548 -4.508 4.802 0.294 1.96 2.842 3.234 5.782 2.548 2.842 -0.686 4.802 -2.548 4.508 -4.508 -0.294 -1.862 -2.94 -3.136 -5.782 -2.842Zm64.484 -375.536c-135.926 0 -239.904 103.194 -239.904 239.12 0 108.682 68.404 201.684 166.11 234.416 12.544 2.254 16.954 -5.488 16.954 -11.858 0 -6.076 -0.294 -39.592 -0.294 -60.172 0 0 -68.6 14.7 -83.006 -29.204 0 0 -11.172 -28.518 -27.244 -35.868 0 0 -22.442 -15.386 1.568 -15.092 0 0 24.402 1.96 37.828 25.284 21.462 37.828 57.428 26.95 71.442 20.482 2.254 -15.68 8.624 -26.558 15.68 -33.026 -54.782 -6.076 -110.054 -14.014 -110.054 -108.29 0 -26.95 7.448 -40.474 23.128 -57.722 -2.548 -6.37 -10.878 -32.634 2.548 -66.542 20.482 -6.37 67.62 26.46 67.62 26.46 19.6 -5.488 40.67 -8.33 61.544 -8.33s41.944 2.842 61.544 8.33c0 0 47.138 -32.928 67.62 -26.46 13.426 34.006 5.096 60.172 2.548 66.542 15.68 17.346 25.284 30.87 25.284 57.722 0 94.57 -57.722 102.116 -112.504 108.29 9.016 7.742 16.66 22.442 16.66 45.472 0 33.026 -0.294 73.892 -0.294 81.928 0 6.37 4.508 14.112 16.954 11.858 98 -32.536 164.444 -125.538 164.444 -234.22 0 -135.926 -110.25 -239.12 -246.176 -239.12Zm-144.648 338.002c-1.274 0.98 -0.98 3.234 0.686 5.096 1.568 1.568 3.822 2.254 5.096 0.98 1.274 -0.98 0.98 -3.234 -0.686 -5.096 -1.568 -1.568 -3.822 -2.254 -5.096 -0.98Zm-10.584 -7.938c-0.686 1.274 0.294 2.842 2.254 3.822 1.568 0.98 3.528 0.686 4.214 -0.686 0.686 -1.274 -0.294 -2.842 -2.254 -3.822 -1.96 -0.588 -3.528 -0.294 -4.214 0.686Zm31.752 34.888c-1.568 1.274 -0.98 4.214 1.274 6.076 2.254 2.254 5.096 2.548 6.37 0.98 1.274 -1.274 0.686 -4.214 -1.274 -6.076 -2.156 -2.254 -5.096 -2.548 -6.37 -0.98Zm-11.172 -14.406c-1.568 0.98 -1.568 3.528 0 5.782s4.214 3.234 5.488 2.254c1.568 -1.274 1.568 -3.822 0 -6.076 -1.372 -2.254 -3.92 -3.234 -5.488 -1.96Z" fill="currentColor" stroke-width="1"></path>
</svg>