<svg xmlns="http://www.w3.org/2000/svg" viewBox="0 0 448 448" id="Linkedin--Streamline-Font-Awesome">
  <desc>
    Linkedin Streamline Icon: https://streamlinehq.com
  </desc>
<!--! Font Awesome Free 6.5.2 by @fontawesome - https://fontawesome.com License - https://fontawesome.com/license/free (Icons: CC BY 4.0, Fonts: SIL OFL 1.1, Code: MIT License) Copyright 2024 Fonticons, Inc.-->
  <path d="M412.16 4.48H35.742C18.494 4.48 4.48 18.69 4.48 36.134v375.732c0 17.444 14.014 31.654 31.262 31.654H412.16c17.248 0 31.36 -14.21 31.36 -31.654V36.134c0 -17.444 -14.112 -31.654 -31.36 -31.654ZM137.172 380.8H72.1V171.276h65.17V380.8Zm-32.536 -238.14c-20.874 0 -37.73 -16.954 -37.73 -37.73s16.856 -37.73 37.73 -37.73c20.776 0 37.73 16.954 37.73 37.73 0 20.874 -16.856 37.73 -37.73 37.73ZM381.094 380.8h-65.072V278.88c0 -24.304 -0.49 -55.566 -33.81 -55.566 -33.908 0 -39.102 26.46 -39.102 53.802V380.8h-65.072V171.276h62.426v28.616h0.882c8.722 -16.464 29.988 -33.81 61.642 -33.81 65.856 0 78.106 43.414 78.106 99.862V380.8Z" fill="currentColor" stroke-width="1"></path>
</svg>