<svg viewBox="0 0 24 24" fill="none" xmlns="http://www.w3.org/2000/svg" id="Youtube--Streamline-Unicons">
  <desc>
    Youtube Streamline Icon: https://streamlinehq.com
  </desc>
  <path d="M23 9.70998c0.0494 -1.43134 -0.2636 -2.85198 -0.91 -4.13 -0.4386 -0.5244 -1.0473 -0.87829 -1.72 -1 -2.7825 -0.25247 -5.5765 -0.35595 -8.37 -0.31 -2.78336 -0.04804 -5.5673 0.0521 -8.34 0.3 -0.54818 0.09972 -1.05549 0.35685 -1.46 0.74 -0.9 0.83 -1 2.25 -1.1 3.45C0.954908 10.9175 0.954908 13.0824 1.1 15.24c0.02893 0.6754 0.12949 1.3458 0.3 2 0.12057 0.505 0.36452 0.9723 0.71 1.36 0.40726 0.4034 0.92638 0.6752 1.49 0.78 2.15591 0.2661 4.32821 0.3764 6.5 0.33 3.5 0.05 6.57 0 10.2 -0.28 0.5775 -0.0984 1.1112 -0.3705 1.53 -0.78 0.28 -0.2801 0.4891 -0.6229 0.61 -1 0.3576 -1.0974 0.5333 -2.2459 0.52 -3.4 0.04 -0.56 0.04 -3.94 0.04 -4.54002ZM9.74 14.85V8.65998L15.66 11.77c-1.66 0.92 -3.85 1.96 -5.92 3.08Z" fill="currentColor" stroke-width="1"></path>
</svg>